<svg id="Layer_1" data-name="Layer 1" xmlns="http://www.w3.org/2000/svg" viewBox="0 0 720 720">
  <defs>
    <style>
      .cls-1 {
        fill: none;
        stroke: #92929277;
        stroke-miterlimit: 10;
      }
    </style>
  </defs>
  <title>3d-cobweb</title>
  <path
    class="cls-1"
    d="M640.5,360c.022-39.49-7.248-78.2-27.61-112.477-20.718-34.878-50.524-63.336-79-91.809-20.5-20.49-40.529-41.919-67.136-54.406C433.921,85.9,396.051,79.525,360,79.5c-39.238-.026-78.212,7.662-112.4,27.5-34.866,20.227-63.216,50.443-91.487,78.722-20.7,20.7-41.775,40.773-54.693,67.456-15.9,32.85-21.9,70.6-21.916,106.826-.019,38.312,6.614,77.093,26.112,110.556,18.708,32.11,46.779,57.872,72.509,84.234,22.5,23.057,44.054,49.663,73.542,63.959,32.96,15.979,72.032,21.74,108.338,21.75,37.6.01,77.777-5.807,111.336-23.642,34.251-18.2,59.258-50.862,85.716-78.406,21.313-22.189,45.433-43.614,60.18-71.021C634.693,434.983,640.482,396.407,640.5,360Z"
  />
  <path
    class="cls-1"
    d="M361.351,615.18c-30.156-.457-63.9-3.243-91.621-17.441-26.834-13.745-43.746-40-63.658-61.7-47.193-51.432-105.72-99.018-104.314-173.606.538-28.53,3.919-61.728,18.737-87.944,12.345-21.839,32.673-38.344,50.2-55.859,52.721-52.677,106.171-114.152,186.87-112.368,29.047.642,60.844,3.855,87.738,16.313,22.488,10.418,38.238,30.282,55.426,47.484,51.608,51.654,119.673,109.6,117.96,187.33-.651,29.546-5.454,63.482-22.679,89.663-15.352,23.335-38.84,42.21-57.151,63.324C514.129,538.9,492.9,572.2,459.969,592.1,430.677,609.8,394.693,615.686,361.351,615.18Z"
  />
  <path
    class="cls-1"
    d="M601.988,351.167c1.317-73.694-87.626-120.6-133.379-166.481-14.064-14.1-25.866-31.048-44.574-39.259-22.084-9.692-48.683-10.352-72.259-10.663-73.845-.973-119.528,69.19-166.224,115.761-15.214,15.173-34.633,27.516-47.177,45.1-14.752,20.675-18.536,48.469-18.84,72.6-.867,68.833,74.726,103.726,113.573,150.513,16.054,19.336,28.433,42.414,50.739,55.411,24,13.984,53.952,15.649,80.722,15.961,30.171.352,61.542-6.667,87.022-23.948,30.352-20.586,48.344-52.169,69.68-80.995,15.526-20.974,35.771-35.4,52.523-54.982C592.638,408.155,601.483,379.41,601.988,351.167Z"
  />
  <path
    class="cls-1"
    d="M368.578,565.144c-23.024.215-48.167-1.13-68.61-12.994-19.576-11.362-30.656-30.765-44.242-48.05-34.434-43.812-119.353-64.9-120.312-128.66-.32-21.222,5.147-43.548,19.766-60.2,13.371-15.235,32.2-24.59,46.6-38.817,40.549-40.056,77.15-112.481,142.776-112.412,19.216.02,41.247-1.227,59.769,5.634,16.226,6.01,26.224,19.5,38.258,31.149,25.032,24.233,57.388,39.924,85.23,60.634,25.266,18.8,59.882,47.343,59.629,81.994-.416,56.76-55.192,81.684-82.7,124.316C471.484,519.3,434.653,564.525,368.578,565.144Z"
  />
  <path
    class="cls-1"
    d="M572.125,336.217c-.711-28.281-33.8-51.312-56.606-66.125-28.217-18.324-58.8-32.519-86.889-51.065-12.82-8.463-24.872-19.523-39.923-23.769-16.109-4.545-34.493-2.749-50.85-2.276-55.246,1.6-85.089,64.53-119.262,99.134-28.65,29.012-67.954,45.262-66.619,90.027.749,25.11,25.528,44.207,45.334,57.708,25.03,17.061,51.273,31,73.509,51.924,14.541,13.683,26.711,30.484,45.1,39.368,17.357,8.383,37.706,9.29,56.378,9,54.754-.857,86.034-40.065,116.485-81.277C515.375,422.88,573.272,381.869,572.125,336.217Z"
  />
  <path
    class="cls-1"
    d="M374.665,514.955c-40.221.39-63.214-14.994-95.78-36.665-21.8-14.5-44.672-27.317-66.437-41.842-17.455-11.647-40.1-27.643-40.644-50.051-.938-38.577,36.945-58.74,61.58-83.99,27.766-28.459,55.568-80.7,100.219-81.72,35.182-.8,57.867,3.978,90.411,18.471,36,16.034,128.2,46.557,129.07,92.49.8,42.172-50.912,85.075-77.755,116.847C447.61,481.3,421.069,514.506,374.665,514.955Z"
  />
  <path
    class="cls-1"
    d="M527.126,332.542c-.579-37.883-75.576-59.915-105.947-70.423-29.741-10.291-57.373-15.416-87.914-15.113-35.2.349-62.318,41.064-84.992,64.54-20.21,20.925-52.006,43.584-51.291,75.647.848,38.027,58.763,62.306,87.148,77.33,29.352,15.536,56.963,25.634,90.123,25.772,36.629.153,63.208-26.529,86.5-51.952C486.353,410.4,527.712,370.831,527.126,332.542Z"
  />
  <path
    class="cls-1"
    d="M369.292,470.076a190.741,190.741,0,0,1-79.38-18.985c-23.7-11.281-64.786-32.157-64.23-62.618.487-26.69,21.24-47.362,39.006-65.827,18.068-18.779,42.4-46.808,70.337-46.78a267.288,267.288,0,0,1,80.155,12.245c24.836,7.792,76.85,24.872,77.326,54.672.5,31.3-28.01,63.931-50.115,86.97C423.307,449.644,398.154,470.5,369.292,470.076Z"
  />
  <path
    class="cls-1"
    d="M452.793,358.741c-.21-42.819-84.3-52.382-115.025-52.139-36.391.289-81.789,47.649-81.6,83.866.229,43.64,71.334,62.358,105.394,62.336C404.432,452.775,452.992,399.266,452.793,358.741Z"
  />
  <path
    class="cls-1"
    d="M353.289,436.112c-24.537.671-66.066-13.827-66.282-43.509-.188-25.925,26.561-55.434,53.7-54.895,20.7.411,71.852,8.587,71.375,38.116C411.629,403.679,381.194,435.349,353.289,436.112Z"
  />
  <path
    class="cls-1"
    d="M374.451,389.441c.182-14.7-19.955-21.348-31.407-21.765-14.2-.517-26.421,13.6-26.281,26.629.151,14.062,16.787,24,29.93,23.329C360.062,416.946,374.279,403.342,374.451,389.441Z"
  />
  <path
    class="cls-1"
    d="M344,395c2.73,38.782,30.112,68.4,31,107.25,1.058,46.34-13.431,91.944-15,138.25"
  />
  <path
    class="cls-1"
    d="M344,395c16.989,37.91,55.488,58.254,70.506,97.809,16.23,42.749,19.605,90.53,32.207,134.462"
  />
  <path
    class="cls-1"
    d="M344,395c30.1,31.388,77.573,34.673,105.643,68.842,28.527,34.727,53.7,68.845,74.607,108.941"
  />
  <path
    class="cls-1"
    d="M344,395c44.381,23.13,97.036,10.81,144.051,25.613,44.207,13.918,69.629,53.259,97.647,87.947"
  />
  <path
    class="cls-1"
    d="M344,395c61.178,11.017,119.546-23.859,180.567-20.158,41.071,2.492,69.257,50.378,102.332,70.45"
  />
  <path
    class="cls-1"
    d="M344,395c37.74-3.971,72.3-20.953,106.936-35.461C478.67,347.923,510.3,331.4,541.25,331c36.281-.471,63.135,26.776,99.251,29"
  />
  <path
    class="cls-1"
    d="M344,395c61.9-24.661,107.538-74.421,166.33-103.473,34.223-16.912,78.385-11.491,115.218-18.712"
  />
  <path
    class="cls-1"
    d="M344,395c45.316-34.873,87.276-78.566,106.1-133.626,5.569-16.294,8.255-25.468,23.22-35.273,27.59-18.074,63.708-25.29,94.452-35.611"
  />
  <path
    class="cls-1"
    d="M344,395c35-48.987,50.954-93.753,56.465-152.938,5.726-61.486,56.918-84.8,105.247-113.627"
  />
  <path
    class="cls-1"
    d="M344,395c8.818-28.129,15.412-56.509,18.284-85.873,2.433-24.864,1.812-50.2,6.031-74.868,9.514-55.627,49.188-94.38,76.774-141.3"
  />
  <path
    class="cls-1"
    d="M344,395c-.969-53.808-12.011-107.44-11-161.25.989-52.587,24.465-101.735,27-154.25"
  />
  <path
    class="cls-1"
    d="M344,395c-16.2-48.125-35.216-95.254-51.24-143.444-16.577-49.857-10.4-105.4-19.911-156.831"
  />
  <path
    class="cls-1"
    d="M344,395c-27-37-54.487-73.428-86.326-106.427-37.2-38.552-49.717-86.757-66.874-136.65"
  />
  <path
    class="cls-1"
    d="M344,395c-38.343-28.161-75.7-53.756-119.811-71.849-48.643-19.951-69.351-66.22-95.445-109.172"
  />
  <path
    class="cls-1"
    d="M344,395c-49.219-16.584-97.994-30.391-148.187-43.469-44.566-11.612-66.163-52.261-103.1-76.644"
  />
  <path
    class="cls-1"
    d="M344,395c-53.4-.833-106.772-5.739-160.128-8.035C146.449,385.354,116.8,362.366,79.5,360"
  />
  <path class="cls-1" d="M344,395c-82.15,23.818-168.267,27.872-249.986,51.578" />
  <path
    class="cls-1"
    d="M344,395c-30.52,20.4-60.517,35.979-86.47,62.15-9.858,9.941-20.579,15.758-33.026,22.187-26.426,13.648-52.577,27.57-78.447,42.267"
  />
  <path
    class="cls-1"
    d="M344,395c-11.8,15.683-25.891,31.215-32.97,49.843-4.746,12.49-5.6,25.749-8.475,38.695-10.572,47.637-59.884,72.49-94.689,101.532"
  />
  <path
    class="cls-1"
    d="M344,395c-10.477,35.878-.559,68.14-6.851,103.775-8.439,47.787-40.783,86.819-62.78,128.789"
  />
</svg>
