<svg
	id="Layer_1"
	class="fill-current"
	data-name="Layer 1"
	xmlns="http://www.w3.org/2000/svg"
	viewBox="0 0 1920 1080"
>
	<defs>
		<style>
			.cls-1 {
				fill: none;
				stroke: #92929277;
				stroke-miterlimit: 10;
				stroke-width: 2px;
			}
		</style>
	</defs>
	<title>hero-bg</title>
	<path class="cls-1" d="M-2,1078.339q730.347.39,1460.647-.015,231.175.055,462.353.015" />
	<path
		class="cls-1"
		d="M-2,1053.3c70.264.467,140.5-1.466,210.752-2.037,70.887-.577,139.71-7.979,210.083-16.323,64.447-7.64,127.636-15.524,192.008-5.944,54.933,8.174,110.253,13.448,165.541,18.533,108.6,9.988,220.434,9.978,329.491,8.042,117.22-2.08,234.551-3.221,351.782-1.544,154.52,2.209,308.882-2.137,463.343-.727"
	/>
	<path
		class="cls-1"
		d="M-2,1028.261c68.352.174,136.51-4.389,204.808-6.261,35.114-.962,69.274-1.053,104.1-6.253,36.512-5.452,72.733-12.634,109.065-19.135,34.616-6.195,69.4-11.9,104.476-14.742,16.177-1.312,34.023-3.6,50.238-1.833,13.425,1.462,27.09,7.147,40.3,10.249,55.55,13.046,112.307,20.257,168.87,27.267,52.532,6.51,105.269,6.587,158.019,11.227,53.9,4.741,107.192,8.519,161.343,7.552,119.069-2.126,237.789-9.641,356.914-5.012,75.484,2.932,150.849,7.509,226.43,6.346,79.575-1.225,158.809-9.683,238.439-9.4"
	/>
	<path
		class="cls-1"
		d="M-2,1003.222c66-.457,131.445-8.066,197.285-11.606,34.329-1.846,68.019-1.746,102.032-7.448,36.128-6.057,71.758-14.671,107.573-22.28,33.854-7.193,68.038-13.73,102.634-15.948,15.76-1.01,33.268-2.392,48.954.207,14.239,2.359,28.429,8.987,42.469,12.71,59.579,15.8,121.191,22.865,182.324,29.583,51.988,5.713,104,7.267,155.736,15.487,51.254,8.145,101.629,15.873,153.708,14.825,121.741-2.449,241.681-17.47,363.618-9.329,77.892,5.2,156.036,14.4,234.207,11.4,77.755-2.984,154.542-16.861,232.46-17.6"
	/>
	<path
		class="cls-1"
		d="M-2,978.183c63.744-1.074,126.3-11.772,189.7-16.993,33.133-2.728,66.167-2.2,99.035-7.792,34.988-5.948,69.277-15.288,103.821-23.294,32.365-7.5,65.286-14.227,98.607-15.1,33.368-.871,60.589,9.177,92.24,17.5,65.215,17.155,133.02,22.953,200.058,27.941,52.4,3.9,103.4,6.29,154.666,18.63,48.471,11.667,95.752,23.283,146.017,22.151,60.464-1.361,120.587-9.007,180.779-14.271a1047.671,1047.671,0,0,1,189.6.595c80.062,7.406,161.455,21.515,242.039,16.483,76.02-4.747,150.081-24.105,226.435-25.855"
	/>
	<path
		class="cls-1"
		d="M-2,953.144c62.056-1.354,122.105-14.77,183.591-21.336,32.116-3.43,64.5-2.27,96.41-7.569,33.808-5.615,66.721-15.463,99.951-23.644,30.841-7.592,62.533-14.324,94.47-13.6,32.794.74,61.36,14.023,92.623,22.051,70.371,18.072,143.917,22.1,216.229,24.8,53.44,1.994,102.95,3.9,154.23,20.262,46.232,14.75,90.588,29.2,139.787,28.066,61.086-1.4,121.7-11.187,182.342-17.825,65.24-7.141,128.1-6.728,193.338.59,81.7,9.165,165.95,27.266,248.422,20.68,74.75-5.969,146.316-30.24,221.607-32.471"
	/>
	<path
		class="cls-1"
		d="M-2,928.105c61.382-1,119.851-16.46,180.468-23.555,31.757-3.717,63.905-1.8,95.46-7.061,33.321-5.551,65.524-16.171,98.112-24.791,29.947-7.922,61.1-14.942,92.29-12.882,32.411,2.141,61.181,18.228,92.209,26.442,72.962,19.315,149.916,21.894,224.992,22.618,54.15.522,102.568.924,153.856,19.987,45.327,16.848,87.345,32.056,136.534,31.107,61.383-1.185,122.146-12.262,182.955-19.668,65.855-8.021,129.195-7.605,195.056.48,82.756,10.159,168.122,29.953,251.849,23.067C1776.06,957.739,1846,929.77,1921,928.105"
	/>
	<path
		class="cls-1"
		d="M-2,903.066c61.531-1.313,120.735-15.426,181.637-22.128,31.728-3.491,63.79-2.067,95.353-6.907,33.257-5.1,65.63-14.611,98.316-22.357,30.3-7.179,61.533-13.486,92.839-11.941,32.352,1.6,61.442,15.762,92.583,23.221,71.914,17.225,146.9,19.041,220.493,20.072,54.269.76,103.088,1.117,154.225,21.026,45.594,17.752,87.025,33.051,136.813,32.363,61.537-.849,121.652-16,182.273-24.876,66.261-9.7,130.469-3.686,196.751,2.969,43.856,4.4,87.658,9.309,131.474,14.081,39.208,4.27,79.437,11.139,118.955,9.789,75.149-2.566,145.9-32.818,221.288-35.312"
	/>
	<path
		class="cls-1"
		d="M-2,878.027c62.254-1.148,123.023-12.69,184.858-18.321,31.939-2.908,64.1-1.764,95.932-5.725,33.368-4.152,66.154-11.886,99.154-18.157,30.921-5.876,62.508-10.981,94.095-9.713,31.814,1.278,61.167,12.632,92.171,18.586,68.99,13.248,139.884,12.975,209.856,13.053,54.564.062,102.652,1.088,153.575,22.351,45.557,19.024,87.275,36.382,137.725,35.057,61.543-1.617,120.308-23.006,180.206-34.88,67.022-13.286,131.357-1.41,198.663,3.674,43.89,3.315,87.839,5.974,131.652,10.245,39.546,3.854,79.271,13.689,118.894,15.1,76.6,2.731,149.792-28.744,226.219-31.271"
	/>
	<path
		class="cls-1"
		d="M-2,852.987c63.387-.606,125.968-9.222,189.13-13.271,32.3-2.07,64.718-1.056,96.96-3.91,33.626-2.976,66.93-8.7,100.356-13.269,31.667-4.333,63.688-7.949,95.7-6.82,31,1.093,60.581,9.7,91.2,13.688,65,8.473,130.828,5.248,196.134,3.551,54.951-1.427,101.623.761,152.256,23.651,45.215,20.441,87.862,41.083,138.911,38.563,61.607-3.041,118.549-31.655,177.371-47.344,67.8-18.084,131.966-.42,200.588,3.128,44.108,2.281,88.331,2.705,132.353,6.5,40.741,3.517,79.177,16.127,119.412,20.73,78.08,8.932,154.768-23.292,232.63-25.2"
	/>
	<path
		class="cls-1"
		d="M-2,827.948c64.668.008,129-5.612,193.572-8.022,66.885-2.5,132.911-4.65,199.676-10.263,32.358-2.721,64.881-4.9,97.37-3.822,30.257,1,59.939,6.947,90.127,8.748,60.706,3.621,121.374-2.784,181.918-6.349,55.286-3.255,100.584.489,150.83,24.947,44.7,21.757,88.619,46.037,140.139,42.2,61.866-4.607,116.792-40.587,174.412-60.2,26.217-8.926,54.3-15.681,82.172-12.189,40.569,5.082,79.145,13.39,120.344,14.571,44.363,1.271,88.844-.555,133.137,2.779,42.51,3.2,78.957,18.436,120.024,26.409,79.217,15.38,159.923-17.629,239.279-18.805"
	/>
	<path
		class="cls-1"
		d="M-2,802.909c132.74.76,266.155-2.89,398.784-7.861,63.069-2.364,125.365,3.31,188.24,2.713,56.9-.54,113.2-9.752,169.794-14.564,55.489-4.719,100.056.556,149.858,26.259,44.284,22.854,89.222,50.09,141.183,45.286,62.38-5.768,115.391-48.409,171.974-71.394,25.386-10.313,53.179-18.26,80.811-13.878,42.025,6.665,80.572,16.109,123.623,16.361,44.51.261,89.085-3.854,133.568-1.009,21.614,1.382,43.213,4.28,63.987,10.618,19.268,5.879,36.774,16.021,56.255,21.254,79.759,21.427,164.413-12.909,244.923-13.785"
	/>
	<path
		class="cls-1"
		d="M-2,777.87c133.82.332,267.667-1.058,401.49-1.328,62.873-.126,126.55,3.766,189.3-.109,54.446-3.362,108.054-14.216,162.352-19.01,55.617-4.911,100.43,1.141,149.9,27.608,44.317,23.71,89.258,52.078,141.81,47.137,63.172-5.939,114.644-53.682,170.706-78.848,24.935-11.193,52.533-19.563,80.014-13.761,43.226,9.127,81.542,19.029,126.317,18.244,44.4-.778,88.76-7.246,133.2-4.943,21.645,1.121,43.234,4.241,63.745,11.512,19.392,6.876,36.317,18.841,55.839,25.345,79.5,26.484,167.477-10.27,248.319-11.847"
	/>
	<path
		class="cls-1"
		d="M-2,752.831c67.494-.633,134.822,6.605,202.3,5.17,67.39-1.433,133.9-8.709,201.536-7.478,63.95,1.164,128.726,7.579,192.577,2.529,53.738-4.25,106.651-15.294,160.314-20.2,54.776-5.012,99.561,1.751,148.7,26.771,44.1,22.455,90.11,50.5,141.731,45.326,62.473-6.261,114.985-50.753,171.364-74.411,25.138-10.549,52.865-18.666,80.342-13.8,19.309,3.417,37.709,10.434,57.249,13.274,22.43,3.259,45.123,3.86,67.749,3.325,43.729-1.035,87.4-7.535,131.184-5.335,21.538,1.081,43,4.189,63.44,11.316,20.713,7.222,39.139,19.18,60.167,25.727,80.687,25.12,163-10.141,244.35-12.207"
	/>
	<path
		class="cls-1"
		d="M-2,727.792c69.687.028,137.912,19.578,207.534,18.054,32.765-.716,63.872-10.649,96.29-14.3,36.89-4.156,74.184-4.314,111.249-3.2,66.819,2,134.994,13.471,201.636,6.164,51.586-5.656,102.25-17.5,153.75-23.765,52.475-6.388,96.762.381,145.114,21.622,44.859,19.707,90.873,43.467,141.456,39.14,61.524-5.262,116.4-41.062,174.048-60.1,26.078-8.612,54.113-15.073,81.718-11.239,40.853,5.673,77.832,13.988,119.588,12.346s83.417-7.983,125.273-6.4c46.876,1.77,82.793,22.022,126.924,34.074,81.705,22.315,156.957-10.266,238.42-12.392"
	/>
	<path
		class="cls-1"
		d="M-2,702.753c72.716,1.81,141.257,34.592,213.845,34.123,33.756-.219,63.68-15.608,96.505-21.493,39.129-7.016,79.27-7.687,118.9-6.392,69.988,2.287,142.762,18.642,212.319,8.371,49.442-7.3,97.9-19.975,147.249-27.819,49.9-7.933,93.9-2.139,141.464,14.39,46.158,16.04,91.323,33.161,141.129,30.583,61.1-3.163,118.634-28.306,177.9-41.136,66.376-14.368,129.1,5.415,195.9.782,38.973-2.7,77.768-9.357,116.921-8.867,46.374.581,84.145,19.235,128.37,30.036,40.245,9.829,80.219,11.929,121.044,4.826,37.5-6.524,73.113-16.376,111.446-17.4"
	/>
	<path
		class="cls-1"
		d="M-2,677.714c76.192,4.011,144.438,50.032,220.434,51.008,34.758.447,62.671-20.533,95.52-28.985,40.111-10.321,82.173-11.961,123.392-10.9,72.361,1.853,148.268,21.238,219.959,9.114,49.384-8.351,97.888-21.154,147.184-29.965,96.858-17.312,184.113,29.957,280.463,28.635,61.274-.84,121.285-14.795,182.063-20.979,63.929-6.5,126.316,7.707,190.149.806,35.963-3.888,71.689-10.978,107.94-11.688,45.921-.9,85.138,15.927,129.336,25.723,40.924,9.07,81.939,12.875,123.319,4.9,34.921-6.732,67.319-16.671,103.241-17.661"
	/>
	<path
		class="cls-1"
		d="M-2,652.675c79.621,5.805,147.167,64.433,226.5,66.346,35.6.859,59.512-25.842,91.38-37.626,38.28-14.156,79.948-17.432,120.453-17.165,73.064.482,147.32,19.027,219.893,8.36,53.543-7.87,106.446-19.535,159.925-27.8,94.675-14.638,187.336,14.264,282.152,15.655,61.926.907,123.739-2.765,185.65-3.084,62.169-.32,123.147,9.2,185.061.169,33.333-4.863,66.422-12.169,100.147-13.833,45.986-2.269,86.629,12.861,131.212,21.931,41.364,8.415,83.866,13.961,125.594,4.968,32.4-6.983,61.407-16.965,95.035-17.918"
	/>
	<path
		class="cls-1"
		d="M-2,627.636c43.353,3.274,81.983,21.781,120.859,40,33.875,15.874,71.894,37.18,110.377,37.773,36.767.567,53.1-31.53,82.128-48.264,31.945-18.416,69.45-24.385,105.817-25.592,69.467-2.3,137.954,11.4,207.455,6.074,64.079-4.915,127.8-13.621,191.842-18.935,96.881-8.039,192.8,7.968,289.629,9.937,62.645,1.274,125.254,5.5,187.8,9.1,61.227,3.523,120.82,8.013,181.655-2.145,31.694-5.293,63.216-12.242,95.356-14.261,46.974-2.952,89.59,10.715,135.387,19.452,41.483,7.913,86.081,15.215,127.869,5.039,29.957-7.294,55.327-17.258,86.83-18.175"
	/>
	<path
		class="cls-1"
		d="M-2,602.6c43.247,3.364,81.828,21.788,120.674,39.864,33.934,15.79,72,36.882,110.5,37.35,36.978.449,50.32-29.947,77.531-48.573,26.926-18.431,59.481-25.927,91.606-28.181,64.033-4.5,127.912,6.811,192.146,3.377,72.777-3.891,145.506-8.628,218.279-12.6,99.879-5.448,198.478,2.345,298.062,9.488,121.157,8.69,247.633,23.38,368.372,5.889,31.549-4.571,63.038-10.04,94.926-11.618,46.687-2.309,89.27,8.785,135.044,16.821,41.716,7.324,85.917,13.813,127.906,4.668,30.159-6.569,56.54-15.679,87.952-16.488"
	/>
	<path
		class="cls-1"
		d="M-2,577.558c80.016,5.887,148.374,66.073,228.333,66.587,35.9.231,52.791-25.221,80.827-42.375,26.686-16.328,57.4-24.645,88.273-28.207,61.156-7.055,123.762,1.186,185.2-.78,73.449-2.35,146.96-.645,220.416-2.62,103.108-2.772,203.244-7.135,305.458,9.016,60.9,9.624,123.238,6.745,184.612,4.856,60.346-1.857,120.381-1.556,180.585-6.654,31.732-2.686,63.485-5.537,95.352-5.795,44.529-.36,85.952,8.023,129.829,14.851,42.1,6.551,84.849,10.785,127.206,4.22,32.737-5.074,63.508-12.526,96.913-13.1"
	/>
	<path
		class="cls-1"
		d="M-2,552.519c77.642,4.14,147.533,53.759,225.248,52.472,35.087-.581,56.2-22.219,85.105-38.258,27.208-15.1,57.03-25.069,87.535-30.911,58.689-11.238,120.9-8.538,180.343-6.776,72.076,2.135,143.573,12.941,215.6,15.877,55.208,2.251,110.019-2.04,165.069-5.278,52.352-3.08,98.456,3.415,149.243,15.2,59.077,13.709,121.639,2.974,180.88-4.2,59.852-7.243,119.5-8.422,179.737-8.724,74.89-.376,146.89,6.283,221,16.294,42.212,5.7,84.466,8.242,126.913,3.884,35.638-3.659,70.373-9.3,106.328-9.585"
	/>
	<path
		class="cls-1"
		d="M-2,527.48c75.42,2.075,146.57,40.578,222.084,37.194,34.7-1.555,60.134-19.844,90.035-35.016A492.977,492.977,0,0,1,398.587,494.7c57.2-16.209,117.954-20.535,177-13.834,69.806,7.923,137.356,28.913,206.967,38.047,56.871,7.462,111.483.319,168.008-5.792,23.819-2.574,47.868-4.461,71.827-2.856,29.692,1.988,55.273,11.64,83.381,20.18,57.308,17.412,120.417-1.966,176.791-14.328,60.443-13.255,117.632-15.746,179.215-10.737,72.845,5.925,145.21,16.868,217.82,24.881,81.32,8.975,160.223-2.762,241.408-2.785"
	/>
	<path
		class="cls-1"
		d="M-2,502.441c73.562.507,145.378,28,219,23.08,65.031-4.349,125.283-47.857,185.436-70.44C458.6,434,517.363,422.086,577,433.905c67.642,13.405,130.436,44.027,197.651,59.041,58.207,13,112.393,2.225,170.244-6.518,25-3.779,50.419-6.818,75.747-5.179,31.353,2.029,56.041,13.818,84.762,24.866,55.746,21.444,119.773-6.677,173.058-23.379,28.236-8.85,57.31-17.842,87.007-19.921,30.728-2.151,62.4,2.609,92.682,7.478,72.316,11.625,142.8,27.013,216.038,32.781,82.417,6.491,164.36-.971,246.808-.633"
	/>
	<path
		class="cls-1"
		d="M-2,477.4c72.174.174,143.95,17.635,216.156,12.453,68.871-4.943,130.539-39.988,192.186-68.032C461.331,396.808,518.4,378.461,578.811,393.8c66.417,16.862,125.058,55.129,190.787,74.011,58.813,16.9,113.335,2.406,171.691-8.615,25.822-4.876,52.286-9,78.647-7.235,32.91,2.2,56.365,15.967,85.174,30.009,54.326,26.479,119.7-9.448,170.39-29.186,27.857-10.847,56.841-21.821,86.9-24.293,31.52-2.593,64.269,3.961,94.925,10.7,72.876,16.018,140.915,35.33,216.049,37.956,82.529,2.884,165.077-.03,247.625.257"
	/>
	<path
		class="cls-1"
		d="M-2,452.362c71.652,2.147,143.533,13.228,215.266,8.457,70.558-4.692,131.7-32.47,194.356-62.931,54.529-26.51,110.348-47.246,171.367-31.579,66.381,17.044,124.171,56.973,189.662,76.546,59.117,17.667,114.086,2.975,172.613-9.109,25.736-5.314,52.191-9.982,78.581-8.281,33.447,2.157,56.5,16.717,85.241,31.822,53.976,28.372,119.525-9.244,169.746-29.688,27.774-11.306,56.785-22.744,86.976-25.161,32.776-2.623,66.7,4.637,98.424,12.162,36.213,8.589,71.773,19.763,108.149,27.683,37.658,8.2,73.875,9.85,112.262,9.395,80.117-.949,160.239.534,240.357.684"
	/>
	<path
		class="cls-1"
		d="M-2,427.323c71.931,4.805,144.51,13.083,216.635,7.606,68.8-5.225,128.576-28.736,190.655-57.165,55.069-25.219,110.188-44.32,171.115-30.145,66.648,15.507,126.486,51.2,192.129,69.835,59.6,16.922,114.844,6.077,174.126-5.818,25.014-5.018,50.565-9.625,76.193-8.4,32.964,1.579,57.285,15.083,86.477,28.484,54.74,25.129,118.322-6.806,170.06-25.557,27.852-10.094,56.662-20.2,86.427-22.5,33.314-2.574,67.822,4.692,100.2,11.829,36.843,8.122,73.2,18.457,110.37,25.057,38.7,6.87,75.53,6.346,114.575,4.7,77.986-3.288,156.044,1.645,234.04,2.076"
	/>
	<path
		class="cls-1"
		d="M-2,402.284c72.109,6.944,144.512,12.993,216.91,6.848,68.027-5.774,127.461-24.742,190.213-50.452,55.506-22.741,109.527-37.134,169.569-25.263,66.78,13.2,128.734,43.367,194.614,59.885,59.558,14.933,115.593,7.665,174.883-3.808,24.2-4.684,48.6-9.071,73.353-8.426,32.754.853,57.595,13.1,87.217,25.034,55.222,22.25,115.593-1.572,169.116-17.868,29.557-9,59.946-17.967,91.015-19.321,33.261-1.45,66.974,4.622,99.462,11.042,36.451,7.2,72.644,16.066,109.567,20.608,39.019,4.8,75.954,1.188,114.87-1.6,77.316-5.534,154.86,2.693,232.211,3.318"
	/>
	<path
		class="cls-1"
		d="M-2,377.245c73.014,8.8,145.015,13.061,218.331,6a748.476,748.476,0,0,0,185.108-41.29c55.645-19.838,109.378-30.691,168.5-21.833,67.632,10.132,132.025,34.786,198.768,48.971,60.1,12.771,116.981,9.483,176.873-1.709,23.467-4.384,47.013-8.753,70.979-8.548,32.351.277,58.612,11.078,88.423,21.921,55.461,20.172,114.411,2.922,169.464-10.084,64.421-15.219,122.951-16.578,188.276-5.631,35.79,6,71.468,13.253,107.732,15.779,39.424,2.747,76.258-3.972,115.21-7.935,78.247-7.959,157,3.583,235.331,4.354"
	/>
	<path
		class="cls-1"
		d="M-2,352.206c133.2,18.731,270.963,11.852,399.953-27.46,55.664-16.964,109.338-24.948,167.57-18.727,68.489,7.316,135,26.578,202.669,38.691,60.581,10.845,118.3,11.451,178.79.575,22.726-4.086,45.434-8.446,68.6-8.67,32.055-.31,59.584,9.046,89.629,18.777,55.672,18.029,113.648,6.687,169.812-2.865,62.876-10.693,122.312-11.875,185.535-2.977,34.95,4.918,69.9,10.656,105.263,11.326,39.7.753,76.3-8.9,115.26-14,79.62-10.416,160.138,4.431,239.915,5.327"
	/>
	<path
		class="cls-1"
		d="M-2,327.167c46.154,7.281,92.719,13.793,139.568,12.6,28.77-.735,57.031-5.336,85.542-8.751,27.9-3.341,56.037-2.857,83.895-6.232,29.345-3.556,57.869-11.082,86.37-18.676,57.333-15.276,112.129-22.079,171.5-17.2,66.742,5.481,132.491,19.277,198.505,29.972,62.539,10.131,122.308,15.2,185.085,4.286,21.805-3.791,43.616-8.188,65.812-8.808,31.559-.882,60.309,6.68,90.343,15.24,57.258,16.32,116.372,8.677,174.506,2.06,59.572-6.781,116.886-7.743,176.464-.383,33.916,4.189,67.827,8.964,102.085,8.713,39.922-.292,75.982-11.626,114.807-18.424,82.105-14.378,166.079,4.567,248.521,5.61"
	/>
	<path
		class="cls-1"
		d="M-2,302.128c46.934,7.612,94.375,14.5,142.062,12.806,28.219-1.005,55.836-6.148,83.8-9.53,27.553-3.332,55.222-2.063,82.777-4.831,29.1-2.924,57.429-9.955,85.687-17.229,57.778-14.873,112.24-21.512,171.942-17.273,66.855,4.747,133.185,15.647,199.264,26.5,62.792,10.311,122.487,19.067,185.949,8.842,54.907-8.847,100.887-9.9,155.505,2.9,57.589,13.5,116.31,7.827,174.554,2.571,59.174-5.339,116.371-6.261,175.409,1.207,33.761,4.271,67.533,9.029,101.654,8.493,40.168-.631,76.093-12.9,115.035-20.192,82.276-15.4,166.708,4.263,249.365,5.734"
	/>
	<path
		class="cls-1"
		d="M-2,277.089c75.12,10.273,146.547,11.546,221.8,4.576,29.9-2.769,60-1.9,89.812-4.83,29.574-2.909,58.247-10.576,86.838-18.345,56.8-15.432,110.242-20.962,169.091-17.612,68.175,3.881,136.084,13.559,203.226,25.781,61.4,11.177,119.132,22.724,181.77,15.04,55.685-6.832,103.06-10.039,158.737.625,56.2,10.764,111.992,2.061,168.018-5.254,61.38-8.014,121.134-8.948,182.363.993,34.946,5.674,69.871,12.453,105.366,13.354,40.006,1.015,76.223-9.944,115.311-15.68,79.715-11.7,160.659-.266,240.673,1.352"
	/>
	<path
		class="cls-1"
		d="M-2,252.05c74.545,8.191,148.155,10.847,223.015,6.766,30.553-1.666,61.623-1.024,92.024-4,30.173-2.955,59.281-11.266,88.289-19.689,119.369-34.661,248.259-19.355,368.713,4.922,61.83,12.461,119.135,28,182.89,23.061,23.927-1.855,47.7-5.365,71.663-6.805,31.154-1.873,60.265,2.069,91.01,6.2,55.9,7.5,109.878-7.188,164.194-18.358,62.32-12.816,120.645-13.219,182.857.82,36.226,8.175,72.2,18.227,109.2,22.3,39.9,4.392,76.147-2.851,115.411-8.26,77.453-10.669,155.793-7.727,233.729-6.951"
	/>
	<path
		class="cls-1"
		d="M-2,227.011c134.533,11.088,279.93,27.6,410.42-14.088,115.194-36.8,246.19-25.583,363.18.537,62.465,13.946,119.261,33.679,184.3,31.572,25.307-.82,50.5-3.644,75.769-5.033,31.111-1.708,60.663,1.719,91.568,3.761,55.657,3.677,107.418-18.069,159.646-33.8,63.829-19.222,119.427-18.311,183.384.7,37.748,11.222,74.894,24.95,113.556,32.835,39.7,8.1,75.96,5.562,115.729.174,74.874-10.144,149.875-16.184,225.452-16.661"
	/>
	<path
		class="cls-1"
		d="M-2,201.972c78.159,4.389,156.042,14.058,234.291,16.687,64.534,2.168,121.276-3.336,182.048-25.529,26.248-9.586,52.518-19.293,80.193-23.9,29.758-4.953,60.494-3.2,90.542-2.637,62.569,1.171,125.861,5.181,186.851,20.02,29.036,7.065,56.393,18.84,85.139,26.77,33.112,9.136,67.2,13.217,101.512,13.421,26.811.16,53.525-2,80.283-3.339,31.078-1.555,61.576,1.176,92.545,1.218,55.849.075,105.751-29.242,156.212-49.295,24.649-9.8,50.824-18.633,77.512-20.3,34.755-2.171,69.442,9.076,101.8,20.559,78.56,27.878,149.836,63.684,235.274,52.535,73.082-9.537,144.844-24.607,218.794-26.209"
	/>
	<path
		class="cls-1"
		d="M-2,176.933c82.213,2.791,163.044,18.415,244.9,25.162,33.2,2.737,68.15,5.172,101.18-.5,28.3-4.857,54.582-16.188,80.672-27.723C449.8,162.8,474.875,151.55,501.818,145.9c29.135-6.113,59.385-4.335,88.978-4.15,60.973.381,122.991,2.507,182.24,18.227,28.82,7.647,55.274,20.886,83.526,30.1,33.654,10.975,68.677,16.5,104.007,17.767,27.954,1,55.858-.637,83.762-2.14,30.826-1.66,61.762-.084,92.483-1.666,56.181-2.891,103.67-37.419,152.861-60.8,23.807-11.316,49.572-21.483,76.15-23.389,35.486-2.546,71.108,10.549,103.6,23.4,77.7,30.735,152.281,77.1,238.794,67.181,71.734-8.225,140.14-31.434,212.784-33.492"
	/>
	<path
		class="cls-1"
		d="M-2,151.894c88.587,2.118,175.127,24.264,262.766,35.225,34.25,4.284,70.215,8.9,104.262.958,26.2-6.111,49.723-19.363,72.9-32.521,22.318-12.672,44.676-25.634,69.54-32.681,27.846-7.892,56.942-6.043,85.57-6.094,60.281-.105,121.81.53,180.287,16.91,28.722,8.045,54.515,22.3,82.436,32.393,33.8,12.22,69.3,18.622,105.14,20.522,58.4,3.1,119.51-1.666,177.787-6.186,56.627-4.392,102.543-40.83,151.591-65.538,23.638-11.908,49.027-21.9,75.716-23.642,36.023-2.352,71.441,10.1,104.357,23.364,77.8,31.34,153.051,81.528,240.128,74,71.568-6.188,138.126-35.051,210.524-36.71"
	/>
	<path
		class="cls-1"
		d="M-2,126.855c95.98,3.379,190.259,23.219,285.517,33.843,34.867,3.888,72.319,10.122,106.786.865,22.669-6.088,42.935-18.176,62.9-30.12,19.245-11.513,38.519-23.306,60.028-30.151,25.929-8.251,52.706-6.329,79.534-6.1,60.176.516,121.207,1.665,179.987,15.936,28.343,6.882,54.462,19.041,82.166,27.794,33.5,10.584,68.324,16.046,103.36,17.879,58.117,3.041,119.633.86,177.611-4.084,55.823-4.761,103.6-37.042,153.564-59.2,24-10.642,49.817-20.1,76.255-21.907,35.352-2.415,71.08,9.757,103.839,21.755,76.977,28.192,153.158,73.925,237.744,66.836,72.245-6.056,140.854-31.116,213.709-33.349"
	/>
	<path
		class="cls-1"
		d="M-2,101.816c95.31,2.92,189.416,19.139,284.237,27.9,35.065,3.239,72,8.5,106.786.8,22.33-4.945,43.089-14.707,63.647-24.426,19.795-9.358,39.61-18.9,60.888-24.44,25.884-6.742,52.273-5.221,78.768-5.055,60.054.374,120.651,1.264,179.817,12.654,61.937,11.924,118.2,33.8,182.143,36.512,57.878,2.453,117.879.5,175.672-3.345,55.439-3.689,105.592-29.371,157.31-47.157,24.968-8.586,51.136-16,77.653-17.417,34.666-1.849,69.452,7.435,102.394,17.29,76.886,23,151.544,58.589,233.539,53.24,73.991-4.826,145.784-24.793,220.146-26.553"
	/>
	<path
		class="cls-1"
		d="M-2,76.777c89.553,1.6,178.393,13.4,267.67,19.465,62.548,4.251,116.422,1.307,176.422-16.282C492.779,65.1,538.971,59.573,591.8,59.454c59.953-.134,120.2.119,179.714,8.24C831.64,75.9,888.435,92.436,949.622,94.1c57.428,1.563,115.465-1.244,172.867-3.273,55.54-1.964,108.225-19.921,161.927-32.318,61.092-14.1,118.712-13.211,179.964-.151C1540.751,74.643,1613.836,98,1692.82,94.85c76.356-3.042,151.646-17.328,228.18-18.073"
	/>
	<path
		class="cls-1"
		d="M-2,51.737c143.68.338,286.144,22.467,429.236,1.795C539.77,37.275,657.572,36.9,770.889,46.129,829.28,50.886,886.167,61.8,944.983,62.47c56.714.645,113.39-2.871,170.1-3.176,56.086-.3,111.037-10.63,166.509-17.586a728.925,728.925,0,0,1,179.884-.174c74.941,9.175,147.585,21.067,223.375,19.862,78.821-1.252,157.272-9.941,236.152-9.659"
	/>
	<path
		class="cls-1"
		d="M-2,26.7c138.739-1.077,277.157,7.252,415.87.578,118.334-5.694,237.985-7.118,356.413-3.069,57.024,1.949,113.67,7.276,170.787,7.287,56.09.012,112.174-2.966,168.257-2.358,116.826,1.266,233.026-11.221,349.995-6.011,73.251,3.262,145.928,6.658,219.274,6.632,80.819-.028,161.577-3.814,242.4-3.059"
	/>
	<path class="cls-1" d="M-2,1.659q730.325-.574,1460.657-.054,231.171.168,462.343.054" />
</svg>
