<?xml version="1.0" encoding="utf-8"?>
<!-- Generator: Adobe Illustrator 23.0.5, SVG Export Plug-In . SVG Version: 6.00 Build 0)  -->
<svg version="1.1" class="fill-current" id="Layer_1" xmlns="http://www.w3.org/2000/svg" xmlns:xlink="http://www.w3.org/1999/xlink" x="0px" y="0px"
	 viewBox="0 0 2306 1080" style="enable-background:new 0 0 2306 1080;" xml:space="preserve">
<style type="text/css">
	.st0{fill:none;stroke:#6a7c8888;stroke-width:2;stroke-miterlimit:10;}
</style>
<g>
	<title>wave-bg</title>
	<path class="st0" d="M-16.8,17h2339.7l1012.1,1046.1h-4363.8L-16.8,17z"/>
	<path class="st0" d="M-923.2,953.8h4152.5"/>
	<path class="st0" d="M-827.3,854.7H23.2c125.4,0,251.2-3.1,376.5,1.1c121.2,4,241.9,10.4,363.3,9.9c116.1-0.4,231.9-11.2,348-11.4
		c115.9-0.2,231.2,5.3,347,9.5c118.2,4.3,236.5,1.6,354.6-4c123.7-5.9,247.1-5.1,370.9-5.1h949.8"/>
	<path class="st0" d="M-739.9,764.3H72.3c121.4,0,240.8-5.9,359.5,23.9c114.4,28.7,227.5,70.9,347.1,53.6
		c112.6-16.2,218.9-62.4,332.2-74.7c113.2-12.3,223,30.8,331.2,57.5c55.4,13.7,113.1,25.6,170.5,21.6
		c58.9-4.1,116.6-18.9,173.4-34.3c58.6-15.9,117.2-33.2,177.4-42c58.4-8.5,117.9-5.5,176.8-5.5h905.6"/>
	<path class="st0" d="M-659.9,681.6h780.6c57.7,0,116.3-2.9,173.8,0.6c57.6,3.5,113.7,18.9,168.7,35.5
		c109.6,33.2,215.4,70.6,331.1,48.5c107.2-20.5,207.9-68.3,316.7-81.5c110.3-13.4,216.9,32.1,320.9,61.9
		c51.5,14.8,105.9,28.8,159.9,28.4c55.1-0.4,110.2-15,162.6-30.4c57.2-16.7,113.7-36.6,171.9-49.6c57.1-12.8,113-13.5,171.1-13.5
		h868.3"/>
	<path class="st0" d="M-586.3,605.6h747.2c111.2,0,219.9,2.5,330.5,15.6c104.7,12.5,208.7,21.8,314.2,14.1
		c103.8-7.5,206.6-26.7,310.8-29.5c102.4-2.7,203,10.5,304.5,21.9c104,11.7,207,13.6,311.2,2.9c108.9-11.2,215.8-25,325.5-25h834.7"
		/>
	<path class="st0" d="M-518.5,535.5c446.5,0,893,0.1,1339.5,0.4c401.8-0.4,803.6-1.5,1205.4-0.4c266,0.7,532.1,0,798.1,0"/>
	<path class="st0" d="M-455.8,470.7h691.2c104.1,0,205,11.1,308.2,23.8c96,11.8,191.3,15.8,287.6,6.4c95.1-9.2,189.4-26.8,285-29.8
		c95.6-3,189.5,9.3,284.1,21.2c96.8,12.2,193,18.4,290.4,9.9c99.5-8.8,198.1-27.8,298.1-31.1c122.5-4,245.6-0.4,368.1-0.4h404.8"/>
	<path class="st0" d="M-397.6,410.5c221.9,0,443.8,0,665.7,0c102.2,0,199.1,36.2,296.9,61.6c46.5,12.1,94.3,22.7,142.5,24.2
		c45.1,1.4,90.7-7.5,134.3-17.8c91.5-21.6,180.5-56,274.5-65.6c93.2-9.5,185,20.9,273.6,45.9c93,26.3,182.9,46.5,279.6,29.4
		c99-17.6,193.1-56.3,292.5-71.6c56.7-8.7,114.2-6,171.4-6h570.3"/>
	<path class="st0" d="M-343.5,354.6H-10c101.5,0,204.8-5.5,306.1,0.6c99.2,6,191.2,50.1,285.3,77.9c44.3,13.1,90.5,23.8,137,23.4
		c45.6-0.4,90.8-11.1,134.2-24c87.4-26,172.3-65.3,263.7-75.6c92.6-10.5,182,23.6,268,53.1c87.6,30,175.3,56.7,268.6,40.3
		c96.6-17,185.8-61.2,281-83.5c54.9-12.8,109.2-12.4,165.3-12.4h550.2"/>
	<path class="st0" d="M-293,302.4H40.4c96.9,0,197.1-7.3,293.5,3.7c92.9,10.6,182.1,40.3,273.8,57.2c89.3,16.5,172.1,10.6,260.5-8.9
		c84-18.5,167.2-44,253.4-50.5c85.5-6.4,170.2,15.7,252.6,35.5c84.5,20.4,170.5,41.5,258.1,33.3c91.7-8.6,179.9-37.4,269.9-55.4
		c107.2-21.4,216.9-15,325.6-15H2599"/>
	<path class="st0" d="M-245.8,253.7H74.2c93.6,0,188-3.6,281.4,1.9c89.7,5.2,178.6,19.6,268.2,25.8c85.2,5.9,170.1,2.5,254.9-6.3
		c80.8-8.4,161.4-19.8,242.7-21.4c83-1.5,164.9,5.7,247.2,14.9c84.2,9.5,167.9,17.1,252.7,15.5c86.7-1.6,172.6-14.5,258.8-23
		c104.3-10.3,208.9-7.5,313.5-7.5h358"/>
	<path class="st0" d="M-201.6,208c195.6,0,391.3-2,586.8-0.3c166.5,1.5,333,5.3,499.5,2.6c326-5.3,651.8,3.4,977.8-1.8
		c214.9-3.4,430.1-0.5,645.1-0.5"/>
	<path class="st0" d="M-160.1,165.1h2626.3"/>
	<path class="st0" d="M-121.1,124.8h2548.2"/>
	<path class="st0" d="M-84.4,86.7h2474.7"/>
	<path class="st0" d="M-49.6,50.9h2405.3"/>
	<path class="st0" d="M2275.1,17l970.8,1046.1"/>
	<path class="st0" d="M2227.3,17c309.8,348.7,619.6,697.4,929.4,1046.1"/>
	<path class="st0" d="M2179.6,17c296,348.7,592.1,697.4,888.1,1046.1"/>
	<path class="st0" d="M2131.8,17l846.8,1046.1"/>
	<path class="st0" d="M2084.1,17c268.5,348.7,537,697.4,805.5,1046.1"/>
	<path class="st0" d="M2036.3,17l764.2,1046.1"/>
	<path class="st0" d="M1988.6,17c241,348.7,481.9,697.4,722.9,1046.1"/>
	<path class="st0" d="M1940.8,17l681.6,1046.1"/>
	<path class="st0" d="M1893.1,17l640.3,1046.1"/>
	<path class="st0" d="M1845.3,17l599,1046.1"/>
	<path class="st0" d="M1797.6,17c50.9,95.5,99.8,191.8,149.9,287.6c41.4,79.2,86.9,156.5,129,235.4l278.8,523"/>
	<path class="st0" d="M1749.9,17c25.3,51.2,50.5,102.3,75.8,153.5c23.3,47.2,41.7,96.3,63,144.4c34.3,77.6,81.9,149,119.4,225.1
		c85.8,174.5,171.9,348.8,258.2,523"/>
	<path class="st0" d="M1702.1,17c22.6,49.8,45.2,99.5,67.8,149.3c24.3,53.6,40.9,109.5,61,164.6c27.3,74.8,75.9,136.8,108.7,208.9
		c79.3,174.3,158.5,348.8,237.5,523.3"/>
	<path class="st0" d="M1654.4,17c20.8,50.3,41.7,100.5,62.5,150.8c23.3,56.2,37,115.1,54.1,173.4c12.3,42,25.5,82.1,52.2,117.2
		c19.7,25.9,35.5,51.6,48.1,81.7c33.5,80.2,61.6,161.7,98.1,240.7c42.8,92.6,79.7,188.1,118.7,282.3"/>
	<path class="st0" d="M1606.6,17l55.5,147.9c23,61.2,34.9,125.1,50,188.6c9.7,40.8,17.1,87.6,46.3,119.7
		c19.2,21.1,34,39.5,44.5,66.8c33,85.9,48.1,175.2,90.8,257.7c43.6,84.3,72.2,176.6,105.5,265.3"/>
	<path class="st0" d="M1558.9,17c16.7,49.8,33.4,99.6,50.1,149.4c22,65.4,31.9,133.5,45.1,201c7.2,36.8,10.5,92.2,40.1,119.7
		c18.7,17.4,31.3,27.5,40.2,53.3c30.7,89,29.1,191.7,80.3,273c47,74.7,67.4,166.5,95.3,249.7"/>
	<path class="st0" d="M1511.1,17c14.9,50.3,29.8,100.6,44.7,150.9c19.3,65.1,27.7,132.3,38.6,199.2c5.2,32.2,9.7,65.5,18.9,96.9
		c3.4,11.6,7.3,24.4,16.9,32.6c5.4,4.6,12.6,6.3,18,10.9c9.6,8,14.2,21.1,17.8,32.6c17.8,57.6,23.3,120,34.3,179.1
		c7,37.1,11.3,80.7,35.7,111.3c20.6,25.8,30.7,49.7,40.2,81.8c14.9,50.3,29.8,100.6,44.7,150.9"/>
	<path class="st0" d="M1463.4,17c13,50.8,26.1,101.6,39.1,152.4c16,62.2,23.4,126,32.3,189.4c4.8,33.9,8.9,68.3,16.6,101.7
		c2.9,12.7,6.2,29,16.1,38.4c4.2,4,10.2,5.4,14.5,9.2c9.3,8.3,12.5,20.4,15.6,32.1c16.5,62.2,20.6,128.4,30.1,191.8
		c5,33.5,4.8,87.4,31.3,113c5.2,5,11.3,8.1,15.8,14c10.7,14.3,13.7,34.6,18,51.5l39.1,152.4"/>
	<path class="st0" d="M1415.6,17l32.1,147.9c13.6,62.8,20.8,126.6,28.9,190.3c5.3,41.9,4,98.4,26.8,135.6
		c10.7,17.4,20.9,27.9,25.7,49.2c13.8,60.4,17.2,124,24.6,185.4c3.8,31.1,6.6,63,13.8,93.6c2.6,11.2,5.4,23.8,14.2,31.9
		c4.5,4.2,9.6,5.4,13.5,10.7c9.6,12.8,10.8,32.5,14.1,47.5l33.4,154"/>
	<path class="st0" d="M1367.9,17c19.3,108.7,37.6,216.5,50,326.3c5,44.3,6.6,92.1,21.9,134.4c7.6,21.1,16.9,39.9,21.1,62.4
		c10.6,57.6,14,116.9,20.1,175.1c4.2,40,2.5,92.2,22.9,128.4c12.4,22.1,18,39.6,22.6,65.6l27.4,154"/>
	<path class="st0" d="M1320.1,17c14.6,105.5,28.9,210.8,39.2,316.8c4.2,42.4,7.5,85.4,16.5,127.1c5.7,26.5,12.8,52.4,16.6,79.3
		c7.5,53.3,11,107.3,15.8,160.9c3.8,42,5.7,85.6,17.2,126.4c21.6,76.7,28.3,156.7,39.2,235.6"/>
	<path class="st0" d="M1272.4,17c10,101.1,20.1,202.1,28,303.3c5.8,73.6,16.4,146.3,23.6,219.7c8.8,89.6,10.6,180.1,23.6,269.2
		c12.3,84.3,19.7,169.1,28,253.9"/>
	<path class="st0" d="M1224.6,17c20.7,348.7,41.3,697.4,62,1046.1"/>
	<path class="st0" d="M1176.9,17c6.9,348.7,13.8,697.4,20.7,1046.1"/>
	<path class="st0" d="M1129.1,17c-6.9,348.7-13.8,697.4-20.7,1046.1"/>
	<path class="st0" d="M1081.4,17c-20.7,348.7-41.3,697.4-62,1046.1"/>
	<path class="st0" d="M1033.6,17c-10,101.1-20.1,202.1-28,303.3c-5.8,73.6-16.4,146.3-23.6,219.7c-8.8,89.6-10.6,180.1-23.6,269.2
		c-12.3,84.3-19.7,169.1-28,253.9"/>
	<path class="st0" d="M985.9,17c-14.6,105.5-28.9,210.7-39.2,316.8c-4.3,43.6-7.7,87.6-17.2,130.4c-5.6,25.4-12.2,50.3-15.8,76.1
		c-7.8,56-11.4,112.6-16.6,168.9c-3.6,39.4-5.7,80.1-16.5,118.3c-21.6,76.7-28.3,156.7-39.2,235.6"/>
	<path class="st0" d="M938.1,17c-19.3,108.7-37.6,216.5-50,326.3c-5.1,45-6.6,94.2-22.9,137c-7.7,20.2-16.2,38.2-20.1,59.8
		c-11,60.5-14.5,122.7-21.1,183.8c-4,37.1-2.8,86-21.9,119.7c-13.6,23.9-18.7,43.7-23.7,71.6c-8.8,49.3-17.5,98.6-26.3,147.9"/>
	<path class="st0" d="M890.4,17l-33.4,154c-13.2,60.8-19.8,122.6-27.6,184.2c-5.3,41.8-4,100.6-27.9,137.5
		c-10.8,16.7-19.9,26.6-24.6,47.4c-14.4,63.4-17.8,130.1-25.7,194.6c-3.5,28-6.2,56.8-12.6,84.4c-2.6,11.2-5.4,23.8-14.2,31.9
		c-5.3,4.9-10.4,6-14.8,12.6c-9.4,14-10.8,35.9-14.2,51.7L663.2,1063"/>
	<path class="st0" d="M842.6,17l-39.1,152.4c-16.8,65.4-24.2,132.6-33.7,199.3c-4.4,30.6-8.3,61.7-15.2,91.9
		c-2.8,12.4-6.3,29.1-16.1,38.4c-4.6,4.4-11.1,5.9-15.8,10.2c-8.4,7.8-11.5,20.5-14.3,31.1c-16.5,62.1-20.6,128.4-30.1,191.8
		c-5.2,35.1-4.9,88-32.7,114.2c-20.2,19.1-25.2,36.4-32.3,64.3l-39.1,152.4"/>
	<path class="st0" d="M794.9,17c-14.9,50.3-29.8,100.6-44.7,150.9C730,236.1,721.6,306.8,710,377c-5.1,30.7-9.1,62.8-18.9,92.5
		c-3.5,10.6-7.8,21.1-16.8,28.1c-17.4,13.7-27,18.4-34.3,42.4c-18.5,60.3-24,125.4-35.9,187.2c-6.9,36-11.7,75.8-35.8,105
		c-20.4,24.7-29.4,49-38.6,79.9c-14.9,50.3-29.8,100.6-44.7,150.9"/>
	<path class="st0" d="M747.1,17c-16.7,49.8-33.4,99.6-50.1,149.4c-22,65.4-31.9,133.5-45.1,201c-7.5,38-10.6,93.6-41.8,121.2
		c-18.3,16.2-30.1,27.5-38.5,51.8c-30.7,89-29.1,191.7-80.3,273c-47.1,74.7-67.3,166.5-95.3,249.7"/>
	<path class="st0" d="M699.4,17c-19.2,51.2-38.4,102.5-57.7,153.7c-22.2,59.2-33.3,121.5-47.8,182.8c-9.7,40.7-17.1,87.7-46.3,119.7
		c-19.2,21.1-34,39.4-44.4,66.8c-32.8,86-48,175.3-90.7,257.7C368.8,881.9,340.2,974.4,307,1063"/>
	<path class="st0" d="M651.6,17c-21.6,52.2-43.2,104.3-64.9,156.5c-23.5,56.6-36.4,116.5-53.9,175.1c-11.8,39.5-24.9,76.7-50,109.8
		c-19.7,25.9-35.5,51.6-48.1,81.7c-17.6,42.2-31.4,85.8-48.1,128.3c-15.6,39.8-34.3,78.3-52.2,117.1c-42,91.1-78.2,185-116.6,277.6"
		/>
	<path class="st0" d="M603.9,17c-23.5,51.7-46.9,103.3-70.4,155c-23.4,51.6-39.1,105.8-58.5,159c-27.3,74.8-75.9,136.8-108.7,208.9
		C287,714.1,207.9,888.5,128.8,1063"/>
	<path class="st0" d="M556.1,17c-25.3,51.2-50.5,102.3-75.8,153.5c-23.3,47.2-41.7,96.3-63,144.4c-34.3,77.6-82,148.9-119.4,225.1
		c-85.6,174.6-172.1,348.7-258.2,523"/>
	<path class="st0" d="M508.4,17c-51.8,97.1-101.1,195.5-152.5,292.7C315,387,270.8,462.7,229.6,540l-278.8,523"/>
	<path class="st0" d="M460.7,17l-599,1046.1"/>
	<path class="st0" d="M412.9,17l-640.3,1046.1"/>
	<path class="st0" d="M365.2,17l-681.6,1046.1"/>
	<path class="st0" d="M317.4,17l-722.9,1046.1"/>
	<path class="st0" d="M269.7,17l-764.2,1046.1"/>
	<path class="st0" d="M221.9,17C-46.6,365.7-315.1,714.3-583.6,1063"/>
	<path class="st0" d="M174.2,17l-846.8,1046.1"/>
	<path class="st0" d="M126.4,17c-296,348.7-592.1,697.4-888.1,1046.1"/>
	<path class="st0" d="M78.7,17l-929.4,1046.1"/>
	<path class="st0" d="M30.9,17l-970.8,1046.1"/>
</g>
</svg>
